<svg width="32" height="33" viewBox="0 0 32 33" fill="none" xmlns="http://www.w3.org/2000/svg">
<path d="M26.2249 7.18992C26.2149 7.17492 26.2049 7.15992 26.1849 7.15492C24.2799 6.27992 22.2649 5.65492 20.1999 5.29992C20.1799 5.29492 20.1599 5.29992 20.1449 5.30492C20.1299 5.30992 20.1149 5.32492 20.1049 5.34492C19.8299 5.83992 19.5799 6.35492 19.3599 6.87492C17.1299 6.53492 14.8649 6.53492 12.6399 6.87492C12.4149 6.34992 12.1649 5.83992 11.8849 5.34492C11.8749 5.32992 11.8599 5.31492 11.8449 5.30492C11.8299 5.29492 11.8099 5.29492 11.7899 5.29492C9.72488 5.64992 7.70988 6.27492 5.80488 7.14992C5.78988 7.15492 5.77488 7.16992 5.76488 7.18492C1.95488 12.8749 0.909884 18.4299 1.41988 23.9099C1.41988 23.9249 1.42488 23.9349 1.42988 23.9499C1.43488 23.9649 1.44488 23.9699 1.45488 23.9799C3.67488 25.6249 6.15488 26.8799 8.79488 27.6899C8.81488 27.6949 8.83489 27.6949 8.84988 27.6899C8.86488 27.6849 8.88488 27.6699 8.89488 27.6549C9.45988 26.8849 9.96488 26.0649 10.3949 25.2149C10.3999 25.2049 10.4049 25.1899 10.4049 25.1749C10.4049 25.1599 10.4049 25.1499 10.3999 25.1349C10.3949 25.1199 10.3899 25.1099 10.3799 25.1049C10.3699 25.0999 10.3599 25.0899 10.3449 25.0849C9.55488 24.7799 8.78488 24.4149 8.04988 23.9899C8.03488 23.9799 8.02489 23.9699 8.01488 23.9599C8.00489 23.9499 7.99989 23.9299 7.99989 23.9149C7.99989 23.8999 7.99988 23.8849 8.00988 23.8699C8.01988 23.8549 8.02489 23.8449 8.03989 23.8349C8.19489 23.7199 8.34988 23.5999 8.49488 23.4799C8.50988 23.4699 8.52489 23.4599 8.53989 23.4599C8.55488 23.4599 8.57488 23.4599 8.58989 23.4649C13.3999 25.6599 18.6099 25.6599 23.3649 23.4649C23.3799 23.4599 23.3999 23.4549 23.4149 23.4549C23.4299 23.4549 23.4499 23.4649 23.4599 23.4749C23.6049 23.5949 23.7599 23.7199 23.9149 23.8349C23.9249 23.8449 23.9349 23.8549 23.9449 23.8699C23.9549 23.8849 23.9549 23.8999 23.9549 23.9149C23.9549 23.9299 23.9499 23.9449 23.9399 23.9599C23.9299 23.9749 23.9199 23.9849 23.9099 23.9899C23.1749 24.4199 22.4099 24.7849 21.6149 25.0799C21.6049 25.0849 21.5899 25.0899 21.5799 25.0999C21.5699 25.1099 21.5649 25.1199 21.5599 25.1349C21.5549 25.1499 21.5549 25.1599 21.5549 25.1749C21.5549 25.1899 21.5599 25.1999 21.5649 25.2149C22.0049 26.0649 22.5049 26.8799 23.0649 27.6549C23.0749 27.6699 23.0949 27.6849 23.1099 27.6899C23.1249 27.6949 23.1499 27.6949 23.1649 27.6899C25.8099 26.8799 28.2949 25.6249 30.5199 23.9799C30.5299 23.9699 30.5399 23.9599 30.5449 23.9499C30.5499 23.9399 30.5549 23.9249 30.5549 23.9099C31.1699 17.5699 29.5299 12.0649 26.2099 7.18492L26.2249 7.18992ZM11.1249 20.5749C9.67488 20.5749 8.48488 19.2449 8.48488 17.6149C8.48488 15.9849 9.65489 14.6549 11.1249 14.6549C12.6099 14.6549 13.7899 15.9949 13.7649 17.6149C13.7649 19.2499 12.5949 20.5749 11.1249 20.5749ZM20.8949 20.5749C19.4449 20.5749 18.2549 19.2449 18.2549 17.6149C18.2549 15.9849 19.4249 14.6549 20.8949 14.6549C22.3799 14.6549 23.5599 15.9949 23.5349 17.6149C23.5349 19.2499 22.3749 20.5749 20.8949 20.5749Z" fill="currentColor"/>
</svg>
