<svg width="32" height="33" viewBox="0 0 32 33" fill="none" xmlns="http://www.w3.org/2000/svg">
<path d="M11.8951 23.5701C11.8951 23.6701 11.7801 23.7501 11.6351 23.7501C11.4701 23.7651 11.3551 23.6851 11.3551 23.5701C11.3551 23.4701 11.4701 23.3901 11.6151 23.3901C11.7651 23.3751 11.8951 23.4551 11.8951 23.5701ZM10.3401 23.3451C10.3051 23.4451 10.4051 23.5601 10.5551 23.5901C10.6851 23.6401 10.8351 23.5901 10.8651 23.4901C10.8951 23.3901 10.8001 23.2751 10.6501 23.2301C10.5201 23.1951 10.3751 23.2451 10.3401 23.3451ZM12.5501 23.2601C12.4051 23.2951 12.3051 23.3901 12.3201 23.5051C12.3351 23.6051 12.4651 23.6701 12.6151 23.6351C12.7601 23.6001 12.8601 23.5051 12.8451 23.4051C12.8301 23.3101 12.6951 23.2451 12.5501 23.2601ZM15.8401 4.1001C8.9051 4.1001 3.6001 9.3651 3.6001 16.3001C3.6001 21.8451 7.0901 26.5901 12.0751 28.2601C12.7151 28.3751 12.9401 27.9801 12.9401 27.6551C12.9401 27.3451 12.9251 25.6351 12.9251 24.5851C12.9251 24.5851 9.4251 25.3351 8.6901 23.0951C8.6901 23.0951 8.1201 21.6401 7.3001 21.2651C7.3001 21.2651 6.1551 20.4801 7.3801 20.4951C7.3801 20.4951 8.6251 20.5951 9.3101 21.7851C10.4051 23.7151 12.2401 23.1601 12.9551 22.8301C13.0701 22.0301 13.3951 21.4751 13.7551 21.1451C10.9601 20.8351 8.1401 20.4301 8.1401 15.6201C8.1401 14.2451 8.5201 13.5551 9.3201 12.6751C9.1901 12.3501 8.7651 11.0101 9.4501 9.2801C10.4951 8.9551 12.9001 10.6301 12.9001 10.6301C13.9001 10.3501 14.9751 10.2051 16.0401 10.2051C17.1051 10.2051 18.1801 10.3501 19.1801 10.6301C19.1801 10.6301 21.5851 8.9501 22.6301 9.2801C23.3151 11.0151 22.8901 12.3501 22.7601 12.6751C23.5601 13.5601 24.0501 14.2501 24.0501 15.6201C24.0501 20.4451 21.1051 20.8301 18.3101 21.1451C18.7701 21.5401 19.1601 22.2901 19.1601 23.4651C19.1601 25.1501 19.1451 27.2351 19.1451 27.6451C19.1451 27.9701 19.3751 28.3651 20.0101 28.2501C25.0101 26.5901 28.4001 21.8451 28.4001 16.3001C28.4001 9.3651 22.7751 4.1001 15.8401 4.1001ZM8.4601 21.3451C8.3951 21.3951 8.4101 21.5101 8.4951 21.6051C8.5751 21.6851 8.6901 21.7201 8.7551 21.6551C8.8201 21.6051 8.8051 21.4901 8.7201 21.3951C8.6401 21.3151 8.5251 21.2801 8.4601 21.3451ZM7.9201 20.9401C7.8851 21.0051 7.9351 21.0851 8.0351 21.1351C8.1151 21.1851 8.2151 21.1701 8.2501 21.1001C8.2851 21.0351 8.2351 20.9551 8.1351 20.9051C8.0351 20.8751 7.9551 20.8901 7.9201 20.9401ZM9.5401 22.7201C9.4601 22.7851 9.4901 22.9351 9.6051 23.0301C9.7201 23.1451 9.8651 23.1601 9.9301 23.0801C9.9951 23.0151 9.9651 22.8651 9.8651 22.7701C9.7551 22.6551 9.6051 22.6401 9.5401 22.7201ZM8.9701 21.9851C8.8901 22.0351 8.8901 22.1651 8.9701 22.2801C9.0501 22.3951 9.1851 22.4451 9.2501 22.3951C9.3301 22.3301 9.3301 22.2001 9.2501 22.0851C9.1801 21.9701 9.0501 21.9201 8.9701 21.9851Z" fill="#1A3D63"/>
</svg>
